<?xml version="1.0" encoding="utf-8"?>
<!-- Uploaded to: SVG Repo, www.svgrepo.com, Generator: SVG Repo Mixer Tools -->
<svg xmlns="http://www.w3.org/2000/svg" xmlns:xlink="http://www.w3.org/1999/xlink" version="1.1" id="Capa_1"  viewBox="-275 367 60 60" xml:space="preserve" width="512" height="512">
<style type="text/css">
	.st0{fill:#FFFFFF;fill-opacity:0;}
	.st1{fill:#AAB1BA;}
	.st2{fill:#ECF4F7;}
	.st3{fill:#51565F;}
</style>
<title>signposts</title>
<desc>Created with Sketch.</desc>
<g id="Travel">
	
	<g id="signposts">
		<g id="fill" transform="translate(1.000000, 1.000000)">
			<path id="Fill-4" class="st1" d="M-243,395v30h-6v-18v-16v-4v-16v-2c0-1.1,0.9-2,2-2h2c1.1,0,2,0.9,2,2v10v0V395z"/>
			<path id="Combined-Shape" class="st2" d="M-249,391v16h-14c-1,0-2-1-2-1l-5-5.5c-1.4-1.3-1.4-2.6,0-3.9l5-4.5c0,0,1-1,2-1     L-249,391z M-249,371v16h-18c-1,0-2-1-2-1l-5-5.2c-1.4-1.3-1.4-2.6,0-3.9l5-4.9c0,0,1-1,2-1H-249z M-218,384.6     c1.3,1.3,1.3,2.5,0,3.8l-5,5.6c0,0-1,1-2,1l-18,0v-16h18c1,0,2,1,2,1L-218,384.6z"/>
		</g>
		<path class="st3" d="M-216,426.5h-2c-0.3,0-0.5-0.2-0.5-0.5s0.2-0.5,0.5-0.5h2c0.3,0,0.5,0.2,0.5,0.5S-215.7,426.5-216,426.5z     M-224,426.5h-8c-0.3,0-0.5-0.2-0.5-0.5s0.2-0.5,0.5-0.5h8c0.3,0,0.5,0.2,0.5,0.5S-223.7,426.5-224,426.5z M-238,426.5h-18    c-0.3,0-0.5-0.2-0.5-0.5s0.2-0.5,0.5-0.5h7.5v-37H-266c-1.2,0-2.2-1-2.4-1.1l-5-5.2c-0.8-0.8-1.2-1.5-1.2-2.3    c0-0.8,0.4-1.6,1.2-2.3l5-4.9c0.1-0.1,1.2-1.1,2.4-1.1h14c0.3,0,0.5,0.2,0.5,0.5s-0.2,0.5-0.5,0.5h-14c-0.7,0-1.4,0.6-1.6,0.8    l-5,4.9c-0.6,0.6-0.9,1.1-0.9,1.6c0,0.5,0.3,1,0.9,1.6l5,5.2c0.2,0.2,1,0.8,1.6,0.8h18c0.3,0,0.5,0.2,0.5,0.5v37.5h5V384    c0-0.3,0.2-0.5,0.5-0.5s0.5,0.2,0.5,0.5v41.5h3.5c0.3,0,0.5,0.2,0.5,0.5S-237.7,426.5-238,426.5z M-260,426.5h-14    c-0.3,0-0.5-0.2-0.5-0.5s0.2-0.5,0.5-0.5h14c0.3,0,0.5,0.2,0.5,0.5S-259.7,426.5-260,426.5z M-252,408.5h-10c-1.2,0-2.2-1-2.4-1.1    l-5-5.5c-0.8-0.7-1.1-1.5-1.1-2.3c0-0.8,0.4-1.6,1.2-2.3l5-4.6c0.1-0.1,1.2-1.1,2.3-1.1l10,0c0,0,0,0,0,0c0.3,0,0.5,0.2,0.5,0.5    c0,0.3-0.2,0.5-0.5,0.5l-10,0c-0.7,0-1.4,0.6-1.7,0.8l-5,4.6c-0.6,0.6-0.9,1.1-0.9,1.6c0,0.5,0.3,1,0.9,1.6l5,5.5    c0.2,0.2,1,0.8,1.6,0.8h10c0.3,0,0.5,0.2,0.5,0.5S-251.7,408.5-252,408.5z M-254,402.5h-4c-0.3,0-0.5-0.2-0.5-0.5s0.2-0.5,0.5-0.5    h4c0.3,0,0.5,0.2,0.5,0.5S-253.7,402.5-254,402.5z M-254,398.5h-6c-0.3,0-0.5-0.2-0.5-0.5s0.2-0.5,0.5-0.5h6    c0.3,0,0.5,0.2,0.5,0.5S-253.7,398.5-254,398.5z M-238,396.5c-0.3,0-0.5-0.2-0.5-0.5s0.2-0.5,0.5-0.5l14,0c0.7,0,1.4-0.6,1.7-0.8    l5-5.5c0.6-0.6,0.9-1.1,0.9-1.6c0-0.5-0.3-1-0.9-1.6l-5-4.6c-0.3-0.2-1-0.9-1.7-0.9h-18c-0.3,0-0.5-0.2-0.5-0.5V370    c0-0.8-0.7-1.5-1.5-1.5h-2c-0.8,0-1.5,0.7-1.5,1.5v14c0,0.3-0.2,0.5-0.5,0.5s-0.5-0.2-0.5-0.5v-14c0-1.4,1.1-2.5,2.5-2.5h2    c1.4,0,2.5,1.1,2.5,2.5v9.6h17.5c1.2,0,2.2,1,2.4,1.1l5,4.6c0.8,0.8,1.2,1.5,1.2,2.3s-0.4,1.5-1.2,2.3l-5,5.5    c-0.1,0.1-1.2,1.1-2.4,1.1L-238,396.5C-238,396.5-238,396.5-238,396.5z M-230,390.5h-6c-0.3,0-0.5-0.2-0.5-0.5s0.2-0.5,0.5-0.5h6    c0.3,0,0.5,0.2,0.5,0.5S-229.7,390.5-230,390.5z M-226,386.5h-10c-0.3,0-0.5-0.2-0.5-0.5s0.2-0.5,0.5-0.5h10    c0.3,0,0.5,0.2,0.5,0.5S-225.7,386.5-226,386.5z M-254,382.5h-8c-0.3,0-0.5-0.2-0.5-0.5s0.2-0.5,0.5-0.5h8c0.3,0,0.5,0.2,0.5,0.5    S-253.7,382.5-254,382.5z M-254,378.5h-10c-0.3,0-0.5-0.2-0.5-0.5s0.2-0.5,0.5-0.5h10c0.3,0,0.5,0.2,0.5,0.5    S-253.7,378.5-254,378.5z"/>
	</g>
</g>
</svg>